<mxfile host="Electron" modified="2025-05-25T03:41:08.569Z" agent="Mozilla/5.0 (Macintosh; Intel Mac OS X 10_15_7) AppleWebKit/537.36 (KHTML, like Gecko) draw.io/22.1.2 Chrome/114.0.5735.289 Electron/25.9.4 Safari/537.36" etag="xHxbGRpSiYRiAIax94ZK" version="22.1.2" type="device">
  <diagram name="Page-1" id="5f0bae14-7c28-e335-631c-24af17079c00">
    <mxGraphModel dx="2338" dy="1738" grid="1" gridSize="10" guides="1" tooltips="1" connect="1" arrows="1" fold="1" page="1" pageScale="1" pageWidth="1100" pageHeight="850" background="none" math="0" shadow="0">
      <root>
        <mxCell id="0" />
        <mxCell id="1" parent="0" />
        <mxCell id="bPYh89cI9sygRxA-Bk-v-2" style="edgeStyle=orthogonalEdgeStyle;rounded=0;orthogonalLoop=1;jettySize=auto;html=1;exitX=1;exitY=0.25;exitDx=0;exitDy=0;entryX=0;entryY=0.25;entryDx=0;entryDy=0;fillColor=#a0522d;strokeColor=#6D1F00;" edge="1" parent="1" source="n4vaRY5eCSg-2q49SCnd-3" target="n4vaRY5eCSg-2q49SCnd-4">
          <mxGeometry relative="1" as="geometry" />
        </mxCell>
        <mxCell id="n4vaRY5eCSg-2q49SCnd-3" value="User Interface&lt;br style=&quot;font-size: 14px;&quot;&gt;(Swift lang)" style="rounded=0;whiteSpace=wrap;html=1;fillColor=#d5e8d4;strokeColor=#82b366;fontStyle=1;fontSize=14;" parent="1" vertex="1">
          <mxGeometry x="-80" y="-360" width="200" height="60" as="geometry" />
        </mxCell>
        <mxCell id="bPYh89cI9sygRxA-Bk-v-6" style="edgeStyle=orthogonalEdgeStyle;rounded=0;orthogonalLoop=1;jettySize=auto;html=1;exitX=0;exitY=0.75;exitDx=0;exitDy=0;entryX=1;entryY=0.75;entryDx=0;entryDy=0;fillColor=#a0522d;strokeColor=#6D1F00;" edge="1" parent="1" source="n4vaRY5eCSg-2q49SCnd-4" target="n4vaRY5eCSg-2q49SCnd-3">
          <mxGeometry relative="1" as="geometry" />
        </mxCell>
        <mxCell id="bPYh89cI9sygRxA-Bk-v-7" style="edgeStyle=orthogonalEdgeStyle;rounded=0;orthogonalLoop=1;jettySize=auto;html=1;exitX=1.006;exitY=0.9;exitDx=0;exitDy=0;entryX=0.5;entryY=0;entryDx=0;entryDy=0;startArrow=classic;startFill=1;endArrow=none;endFill=0;fillColor=#e1d5e7;strokeColor=#9673a6;exitPerimeter=0;" edge="1" parent="1" source="n4vaRY5eCSg-2q49SCnd-4" target="n4vaRY5eCSg-2q49SCnd-30">
          <mxGeometry relative="1" as="geometry" />
        </mxCell>
        <mxCell id="bPYh89cI9sygRxA-Bk-v-13" value="Read PDFs" style="edgeLabel;html=1;align=center;verticalAlign=middle;resizable=0;points=[];fontStyle=1;fontSize=14;" vertex="1" connectable="0" parent="bPYh89cI9sygRxA-Bk-v-7">
          <mxGeometry x="-0.2917" y="-1" relative="1" as="geometry">
            <mxPoint x="12" as="offset" />
          </mxGeometry>
        </mxCell>
        <mxCell id="bPYh89cI9sygRxA-Bk-v-14" style="edgeStyle=orthogonalEdgeStyle;rounded=0;orthogonalLoop=1;jettySize=auto;html=1;exitX=0.75;exitY=1;exitDx=0;exitDy=0;entryX=0;entryY=0.75;entryDx=0;entryDy=0;fillColor=#e1d5e7;strokeColor=#9673a6;" edge="1" parent="1" source="n4vaRY5eCSg-2q49SCnd-4" target="n4vaRY5eCSg-2q49SCnd-30">
          <mxGeometry relative="1" as="geometry" />
        </mxCell>
        <mxCell id="bPYh89cI9sygRxA-Bk-v-16" value="Write&lt;br style=&quot;font-size: 14px;&quot;&gt;Vectordump &lt;br&gt;files" style="edgeLabel;html=1;align=center;verticalAlign=middle;resizable=0;points=[];fontStyle=1;fontSize=14;" vertex="1" connectable="0" parent="bPYh89cI9sygRxA-Bk-v-14">
          <mxGeometry x="-0.1104" relative="1" as="geometry">
            <mxPoint as="offset" />
          </mxGeometry>
        </mxCell>
        <mxCell id="bPYh89cI9sygRxA-Bk-v-18" style="edgeStyle=orthogonalEdgeStyle;rounded=0;orthogonalLoop=1;jettySize=auto;html=1;exitX=0.25;exitY=0;exitDx=0;exitDy=0;entryX=0;entryY=0.5;entryDx=0;entryDy=0;fontSize=14;fontStyle=1;fillColor=#fff2cc;strokeColor=#d6b656;" edge="1" parent="1" source="n4vaRY5eCSg-2q49SCnd-4" target="n4vaRY5eCSg-2q49SCnd-5">
          <mxGeometry relative="1" as="geometry">
            <Array as="points">
              <mxPoint x="370" y="-410" />
              <mxPoint x="300" y="-410" />
              <mxPoint x="300" y="-480" />
            </Array>
          </mxGeometry>
        </mxCell>
        <mxCell id="bPYh89cI9sygRxA-Bk-v-19" value="Run LLM" style="edgeLabel;html=1;align=center;verticalAlign=middle;resizable=0;points=[];fontSize=14;fontStyle=1" vertex="1" connectable="0" parent="bPYh89cI9sygRxA-Bk-v-18">
          <mxGeometry x="0.1615" y="-1" relative="1" as="geometry">
            <mxPoint y="-20" as="offset" />
          </mxGeometry>
        </mxCell>
        <mxCell id="bPYh89cI9sygRxA-Bk-v-21" style="edgeStyle=orthogonalEdgeStyle;rounded=0;orthogonalLoop=1;jettySize=auto;html=1;exitX=1;exitY=0;exitDx=0;exitDy=0;entryX=0;entryY=0.25;entryDx=0;entryDy=0;fontSize=14;fontStyle=1;fillColor=#dae8fc;strokeColor=#6c8ebf;" edge="1" parent="1" source="n4vaRY5eCSg-2q49SCnd-4" target="n4vaRY5eCSg-2q49SCnd-27">
          <mxGeometry relative="1" as="geometry" />
        </mxCell>
        <mxCell id="bPYh89cI9sygRxA-Bk-v-22" value="Store&lt;br style=&quot;font-size: 14px;&quot;&gt;Metadata" style="edgeLabel;html=1;align=center;verticalAlign=middle;resizable=0;points=[];fontSize=14;fontStyle=1" vertex="1" connectable="0" parent="bPYh89cI9sygRxA-Bk-v-21">
          <mxGeometry x="-0.1481" y="-1" relative="1" as="geometry">
            <mxPoint as="offset" />
          </mxGeometry>
        </mxCell>
        <mxCell id="n4vaRY5eCSg-2q49SCnd-4" value="RAG Backend&lt;br style=&quot;font-size: 14px;&quot;&gt;(lib-tldr)" style="rounded=0;whiteSpace=wrap;html=1;fillColor=#A0522D;fontColor=#FFFFFF;fontStyle=1;fontSize=14;" parent="1" vertex="1">
          <mxGeometry x="320" y="-360" width="200" height="60" as="geometry" />
        </mxCell>
        <mxCell id="bPYh89cI9sygRxA-Bk-v-8" style="edgeStyle=orthogonalEdgeStyle;rounded=0;orthogonalLoop=1;jettySize=auto;html=1;exitX=0.5;exitY=0;exitDx=0;exitDy=0;entryX=0.5;entryY=1;entryDx=0;entryDy=0;endArrow=none;endFill=0;startArrow=classic;startFill=1;fillColor=#f8cecc;strokeColor=#b85450;" edge="1" parent="1" source="n4vaRY5eCSg-2q49SCnd-17" target="n4vaRY5eCSg-2q49SCnd-30">
          <mxGeometry relative="1" as="geometry" />
        </mxCell>
        <mxCell id="bPYh89cI9sygRxA-Bk-v-10" value="&lt;b&gt;&lt;font style=&quot;font-size: 14px;&quot;&gt;Read Vectordump files&lt;/font&gt;&lt;/b&gt;" style="edgeLabel;html=1;align=center;verticalAlign=middle;resizable=0;points=[];" vertex="1" connectable="0" parent="bPYh89cI9sygRxA-Bk-v-8">
          <mxGeometry x="0.0083" relative="1" as="geometry">
            <mxPoint as="offset" />
          </mxGeometry>
        </mxCell>
        <mxCell id="bPYh89cI9sygRxA-Bk-v-9" style="edgeStyle=orthogonalEdgeStyle;rounded=0;orthogonalLoop=1;jettySize=auto;html=1;exitX=0.5;exitY=1;exitDx=0;exitDy=0;entryX=0.25;entryY=1;entryDx=0;entryDy=0;fillColor=#f8cecc;strokeColor=#b85450;" edge="1" parent="1" source="n4vaRY5eCSg-2q49SCnd-17" target="n4vaRY5eCSg-2q49SCnd-4">
          <mxGeometry relative="1" as="geometry" />
        </mxCell>
        <mxCell id="n4vaRY5eCSg-2q49SCnd-17" value="&lt;div style=&quot;font-size: 14px;&quot;&gt;&lt;br style=&quot;font-size: 14px;&quot;&gt;&lt;/div&gt;&lt;div style=&quot;font-size: 14px;&quot;&gt;NPU accelerated&amp;nbsp;&lt;/div&gt;&lt;div style=&quot;font-size: 14px;&quot;&gt;Cosine Similarity&amp;nbsp;&lt;/div&gt;&lt;div style=&quot;font-size: 14px;&quot;&gt;(lib-npu_accelerator)&lt;/div&gt;&lt;div style=&quot;font-size: 14px;&quot;&gt;&lt;br style=&quot;font-size: 14px;&quot;&gt;&lt;/div&gt;" style="rounded=0;whiteSpace=wrap;html=1;container=0;fontStyle=1;fontSize=14;fillColor=#F8CECC;" parent="1" vertex="1">
          <mxGeometry x="360" y="-90" width="200" height="60" as="geometry" />
        </mxCell>
        <mxCell id="bPYh89cI9sygRxA-Bk-v-20" style="edgeStyle=orthogonalEdgeStyle;rounded=0;orthogonalLoop=1;jettySize=auto;html=1;exitX=0.5;exitY=1;exitDx=0;exitDy=0;entryX=1;entryY=0.5;entryDx=0;entryDy=0;fontSize=14;fontStyle=1;fillColor=#dae8fc;strokeColor=#6c8ebf;" edge="1" parent="1" source="n4vaRY5eCSg-2q49SCnd-27" target="n4vaRY5eCSg-2q49SCnd-4">
          <mxGeometry relative="1" as="geometry">
            <Array as="points">
              <mxPoint x="695" y="-330" />
            </Array>
          </mxGeometry>
        </mxCell>
        <mxCell id="bPYh89cI9sygRxA-Bk-v-23" value="Read Metadata" style="edgeLabel;html=1;align=center;verticalAlign=middle;resizable=0;points=[];fontSize=14;fontStyle=1" vertex="1" connectable="0" parent="bPYh89cI9sygRxA-Bk-v-20">
          <mxGeometry x="-0.0486" y="2" relative="1" as="geometry">
            <mxPoint as="offset" />
          </mxGeometry>
        </mxCell>
        <mxCell id="n4vaRY5eCSg-2q49SCnd-27" value="&lt;div style=&quot;font-size: 14px;&quot;&gt;PostgresSQL&lt;/div&gt;&lt;div style=&quot;font-size: 14px;&quot;&gt;Database&lt;/div&gt;" style="rounded=0;whiteSpace=wrap;html=1;container=0;fontStyle=1;fontSize=14;fillColor=#dae8fc;strokeColor=#6c8ebf;" parent="1" vertex="1">
          <mxGeometry x="600" y="-400" width="190" height="60" as="geometry" />
        </mxCell>
        <mxCell id="n4vaRY5eCSg-2q49SCnd-30" value="File System&lt;br style=&quot;font-size: 14px;&quot;&gt;(Corpus Directory &amp;amp; Vector dump files)" style="rounded=0;whiteSpace=wrap;html=1;fontStyle=1;fontSize=14;fillColor=#e1d5e7;strokeColor=#9673a6;" parent="1" vertex="1">
          <mxGeometry x="600" y="-240" width="200" height="60" as="geometry" />
        </mxCell>
        <mxCell id="bPYh89cI9sygRxA-Bk-v-5" style="edgeStyle=orthogonalEdgeStyle;rounded=0;orthogonalLoop=1;jettySize=auto;html=1;exitX=1;exitY=0.5;exitDx=0;exitDy=0;fillColor=#fff2cc;strokeColor=#d6b656;" edge="1" parent="1" source="n4vaRY5eCSg-2q49SCnd-5">
          <mxGeometry relative="1" as="geometry">
            <mxPoint x="470" y="-360" as="targetPoint" />
            <Array as="points">
              <mxPoint x="540" y="-480" />
              <mxPoint x="540" y="-410" />
              <mxPoint x="470" y="-410" />
            </Array>
          </mxGeometry>
        </mxCell>
        <mxCell id="bPYh89cI9sygRxA-Bk-v-12" value="LLM Response" style="edgeLabel;html=1;align=center;verticalAlign=middle;resizable=0;points=[];fontSize=14;fontStyle=1" vertex="1" connectable="0" parent="bPYh89cI9sygRxA-Bk-v-5">
          <mxGeometry x="0.2087" y="-2" relative="1" as="geometry">
            <mxPoint x="26" y="-20" as="offset" />
          </mxGeometry>
        </mxCell>
        <mxCell id="n4vaRY5eCSg-2q49SCnd-5" value="llama.cpp&lt;br style=&quot;font-size: 14px;&quot;&gt;(lib-llama)" style="rounded=0;whiteSpace=wrap;html=1;fontStyle=1;fontSize=14;fillColor=#fff2cc;strokeColor=#d6b656;" parent="1" vertex="1">
          <mxGeometry x="320" y="-510" width="200" height="60" as="geometry" />
        </mxCell>
        <mxCell id="bPYh89cI9sygRxA-Bk-v-26" value="" style="group" vertex="1" connectable="0" parent="1">
          <mxGeometry x="-80" y="-180" width="150" height="173" as="geometry" />
        </mxCell>
        <mxCell id="n4vaRY5eCSg-2q49SCnd-22" value="" style="rounded=0;whiteSpace=wrap;html=1;fontStyle=1;fontSize=14;container=0;" parent="bPYh89cI9sygRxA-Bk-v-26" vertex="1">
          <mxGeometry width="150" height="173" as="geometry" />
        </mxCell>
        <mxCell id="n4vaRY5eCSg-2q49SCnd-24" value="Legend" style="text;html=1;strokeColor=none;fillColor=none;align=center;verticalAlign=middle;whiteSpace=wrap;rounded=0;fontStyle=1;fontSize=14;container=0;" parent="bPYh89cI9sygRxA-Bk-v-26" vertex="1">
          <mxGeometry x="45" width="60" height="30" as="geometry" />
        </mxCell>
        <mxCell id="n4vaRY5eCSg-2q49SCnd-13" value="Module" style="text;html=1;strokeColor=none;fillColor=none;align=left;verticalAlign=middle;whiteSpace=wrap;rounded=0;fontStyle=1;fontSize=14;container=0;" parent="bPYh89cI9sygRxA-Bk-v-26" vertex="1">
          <mxGeometry x="72" y="31" width="60" height="30" as="geometry" />
        </mxCell>
        <mxCell id="n4vaRY5eCSg-2q49SCnd-20" value="" style="endArrow=none;html=1;endSize=12;startArrow=classic;startSize=14;startFill=1;edgeStyle=orthogonalEdgeStyle;align=left;verticalAlign=bottom;rounded=0;exitX=0.5;exitY=1;exitDx=0;exitDy=0;endFill=0;fontStyle=1;fontSize=14;" parent="bPYh89cI9sygRxA-Bk-v-26" edge="1">
          <mxGeometry x="-1" y="3" relative="1" as="geometry">
            <mxPoint x="67" y="89" as="sourcePoint" />
            <mxPoint x="12" y="89" as="targetPoint" />
          </mxGeometry>
        </mxCell>
        <mxCell id="n4vaRY5eCSg-2q49SCnd-21" value="Control&lt;br&gt;flow" style="text;html=1;strokeColor=none;fillColor=none;align=left;verticalAlign=middle;whiteSpace=wrap;rounded=0;fontStyle=1;fontSize=14;container=0;" parent="bPYh89cI9sygRxA-Bk-v-26" vertex="1">
          <mxGeometry x="72" y="77" width="70" height="30" as="geometry" />
        </mxCell>
        <mxCell id="bPYh89cI9sygRxA-Bk-v-25" value="" style="rounded=0;whiteSpace=wrap;html=1;" vertex="1" parent="bPYh89cI9sygRxA-Bk-v-26">
          <mxGeometry x="10" y="36" width="50" height="24" as="geometry" />
        </mxCell>
      </root>
    </mxGraphModel>
  </diagram>
</mxfile>
